<svg width="24" height="21" viewBox="0 0 24 21" fill="none" xmlns="http://www.w3.org/2000/svg">
<path d="M10.29 2.85923L1.82002 16.9992C1.64539 17.3017 1.55299 17.6445 1.55201 17.9937C1.55103 18.343 1.64151 18.6864 1.81445 18.9898C1.98738 19.2931 2.23675 19.546 2.53773 19.7231C2.83871 19.9002 3.18082 19.9954 3.53002 19.9992H20.47C20.8192 19.9954 21.1613 19.9002 21.4623 19.7231C21.7633 19.546 22.0127 19.2931 22.1856 18.9898C22.3585 18.6864 22.449 18.343 22.448 17.9937C22.4471 17.6445 22.3547 17.3017 22.18 16.9992L13.71 2.85923C13.5318 2.56533 13.2807 2.32235 12.9812 2.15371C12.6817 1.98508 12.3438 1.89648 12 1.89648C11.6563 1.89648 11.3184 1.98508 11.0188 2.15371C10.7193 2.32235 10.4683 2.56533 10.29 2.85923V2.85923Z" stroke="#E5484D" stroke-width="2" stroke-linecap="round" stroke-linejoin="round"/>
</svg>
